<svg width="16" height="16" viewBox="0 0 16 16" fill="none" xmlns="http://www.w3.org/2000/svg">
<path d="M14.7734 4.04618L11.4218 0.695305C11.3104 0.58385 11.1781 0.495438 11.0325 0.435117C10.8869 0.374797 10.7308 0.34375 10.5732 0.34375C10.4156 0.34375 10.2596 0.374797 10.114 0.435117C9.96836 0.495438 9.83607 0.58385 9.72464 0.695305L0.476743 9.9432C0.364831 10.0542 0.276105 10.1864 0.215722 10.332C0.155338 10.4776 0.124502 10.6338 0.125006 10.7914V14.143C0.125006 14.4613 0.251429 14.7665 0.476464 14.9915C0.701499 15.2166 1.00671 15.343 1.32496 15.343H4.67658C4.83422 15.3435 4.99039 15.3127 5.136 15.2523C5.28162 15.1919 5.41378 15.1032 5.5248 14.9913L11.7998 8.717L12.0608 9.75946L9.30091 12.5186C9.18832 12.6311 9.12504 12.7837 9.12497 12.9428C9.1249 13.102 9.18805 13.2546 9.30053 13.3672C9.41301 13.4798 9.56561 13.5431 9.72475 13.5431C9.88389 13.5432 10.0365 13.4801 10.1491 13.3676L13.149 10.3677C13.2224 10.2944 13.2755 10.2034 13.3033 10.1036C13.331 10.0037 13.3324 9.89829 13.3073 9.79771L12.7898 7.72704L14.7734 5.74336C14.8849 5.63193 14.9733 5.49964 15.0336 5.35403C15.094 5.20843 15.125 5.05237 15.125 4.89477C15.125 4.73717 15.094 4.58111 15.0336 4.4355C14.9733 4.2899 14.8849 4.15761 14.7734 4.04618ZM12.1245 6.69508L8.77368 3.34345L10.5736 1.54352L13.9245 4.89514L12.1245 6.69508Z" fill="white"/>
</svg>
