<svg width="16" height="12" viewBox="0 0 16 12" fill="none" xmlns="http://www.w3.org/2000/svg">
<path d="M0.679688 6.00005L6.16719 0.511719V3.50005L6.17302 3.59755C6.1969 3.80026 6.29435 3.98716 6.44688 4.12279C6.59941 4.25842 6.79641 4.33336 7.00052 4.33339L11.1672 4.33255V7.66588L7.00052 7.66672C6.77951 7.66672 6.56755 7.75452 6.41127 7.9108C6.25499 8.06708 6.16719 8.27904 6.16719 8.50005V11.4884L0.679688 6.00005ZM14.5005 2.66672C14.7046 2.66675 14.9016 2.74168 15.0542 2.87731C15.2067 3.01295 15.3041 3.19984 15.328 3.40255L15.3339 3.50005V8.50005C15.3336 8.71245 15.2523 8.91675 15.1065 9.07119C14.9607 9.22564 14.7614 9.31858 14.5494 9.33103C14.3373 9.34348 14.1285 9.27449 13.9657 9.13817C13.8028 9.00184 13.6981 8.80846 13.673 8.59755L13.6672 8.50005V3.50005C13.6672 3.27904 13.755 3.06708 13.9113 2.9108C14.0675 2.75452 14.2795 2.66672 14.5005 2.66672Z" fill="white"/>
</svg>
