<svg id="excel-file" xmlns="http://www.w3.org/2000/svg" width="14" height="14" viewBox="0 0 14 14">
  <path id="Path_75008" data-name="Path 75008" d="M20.933,3H16V4.607h1.632V5.7H16V6.769h1.615V7.846H16V8.923h1.615V10H16v1.077h1.615v1.077H16v1.615h4.933a.461.461,0,0,0,.451-.468V3.468A.461.461,0,0,0,20.933,3Zm-.626,9.154H18.154V11.077h2.154Zm0-2.154H18.154V8.923h2.154Zm0-2.154H18.154V6.769h2.154Zm0-2.154H18.154V4.615h2.154Z" transform="translate(-7.385 -1.385)" fill="#152c5b"/>
  <path id="Path_75009" data-name="Path 75009" d="M0,1.556V12.445L8.077,14V0Zm5.109,8.18-.94-1.776a1.576,1.576,0,0,1-.11-.365H4.044a2.765,2.765,0,0,1-.126.381L2.976,9.735H1.511L3.25,7.009,1.66,4.281H3.154l.78,1.635a2.857,2.857,0,0,1,.164.46h.015q.046-.16.171-.475l.867-1.62H6.52l-1.635,2.7,1.681,2.75Z" fill="#152c5b"/>
</svg>
